<svg version="1.2" xmlns="http://www.w3.org/2000/svg" viewBox="0 0 771 331" width="771" height="331">
	<style>
		.s0 { fill: #ffffff } 
	</style>
	<path id="Path 0" fill-rule="evenodd" class="s0" d="m216 90.05c1.38-0.01 2.99 0.31 3.59 0.72 0.6 0.4 1.88 2.76 2.84 5.23 1.34 3.42 1.66 6.54 1.35 13-0.34 7.26-0.93 9.59-4.03 16-2.01 4.13-5.8 10.05-8.45 13.16-2.64 3.11-7.27 7.63-10.3 10.05-3.03 2.42-6.18 4.64-7 4.95-0.82 0.3-1.83 2.3-2.24 4.45-0.41 2.14-0.74 6.03-0.75 8.64-0.01 4.62 0.09 4.78 3.74 5.91 2.06 0.63 5.49 2.32 7.61 3.75 2.12 1.42 4.85 3.94 6.07 5.59 1.21 1.65 2.97 4.91 3.89 7.25 0.92 2.34 1.68 6.84 1.67 10-0.01 4.04-0.73 7.24-2.44 10.75-1.34 2.75-3.25 5.94-4.24 7.08-1 1.15-4.28 3.49-7.31 5.2-3.03 1.72-7.3 3.3-13.5 3.92l-0.76 8.9c-0.41 4.9-1.23 10.93-1.81 13.4-0.59 2.47-2.16 5.96-3.5 7.75-1.33 1.79-4.34 4.21-6.68 5.38-3.54 1.77-5.3 2.02-10.5 1.5-3.44-0.35-7.49-1.11-9-1.69-1.51-0.58-4.45-2.26-6.54-3.75-2.17-1.54-4.41-4.29-5.25-6.44-0.8-2.06-1.46-4.65-1.46-5.75 0-1.1 1.12-3.35 2.5-5 2.1-2.52 3.22-3 7-3 3.47 0 5.07 0.57 7 2.5 1.42 1.42 2.51 3.68 2.53 5.25 0.02 1.51-0.77 3.48-1.75 4.37-0.98 0.89-3.13 2.04-7.78 3.48l3.5 2.17c2.5 1.55 5.14 2.18 9.25 2.2 3.92 0.02 6.78-0.58 9-1.89 1.79-1.06 4.04-3.64 5-5.75 0.96-2.11 2.13-7.88 2.61-12.83 0.48-4.95 0.59-9.29 0.26-9.64-0.34-0.36-3.09-1.17-6.12-1.82-3.03-0.64-7.75-2.2-10.5-3.47-2.75-1.27-6.91-4.28-9.25-6.69-2.34-2.41-5.48-6.85-6.97-9.88-2.37-4.83-2.7-6.66-2.67-15 0.02-8.25 0.39-10.29 2.81-15.5 1.74-3.76 4.88-8.03 8.43-11.44 3.11-2.99 9.48-7.94 14.17-11 4.68-3.06 10.85-6.68 18.92-10.56l0.57-8.5c0.32-4.68 1.28-11.2 2.15-14.5 0.86-3.3 2.75-8 4.2-10.44 1.45-2.45 5.11-7.01 8.14-10.14 3.03-3.13 6.4-6.18 7.5-6.78 1.1-0.59 3.12-1.09 4.5-1.09zm-12.32 21.73c-1.55 1.49-3.64 4.07-4.64 5.72-1 1.65-2.55 6.26-3.43 10.25-0.89 3.99-1.61 8.15-1.61 9.25 0 1.96 0.08 1.95 4.11-0.25 2.26-1.24 6.21-4.28 8.78-6.75 2.57-2.47 5.52-6.3 6.56-8.5 1.04-2.2 2.07-6.03 2.3-8.5 0.25-2.81-0.09-5.12-0.92-6.17-1.23-1.54-1.58-1.52-4.83 0.28-1.93 1.07-4.77 3.17-6.32 4.67zm-22.86 49.81c-2.93 1.79-7.73 4.97-10.68 7.08-2.94 2.11-7.11 5.63-9.26 7.83-2.15 2.2-4.58 6.03-5.4 8.5-0.83 2.47-1.51 6.53-1.51 9 0 2.47 0.52 6.07 1.15 8 0.64 1.93 2.56 5.39 4.27 7.7 1.71 2.31 5.14 5.33 7.61 6.72 2.47 1.4 6.87 2.88 9.76 3.31 4.85 0.71 5.27 0.61 5.28-1.23 0.01-1.1 0.67-8.53 1.46-16.5 0.79-7.97 1.46-15.4 1.49-16.5 0.04-1.77-0.36-1.91-3.47-1.25-1.94 0.41-4.63 1.54-5.99 2.5-1.35 0.96-3.15 3.21-4 5-0.84 1.79-1.53 4.71-1.53 6.5-0.01 1.79 0.89 4.94 2 7 1.51 2.83 1.69 3.89 0.75 4.33-0.69 0.32-2.71-0.13-4.5-1-2.23-1.08-3.92-3.07-5.38-6.33-1.68-3.73-2-5.82-1.5-9.75 0.35-2.75 1.46-6.95 2.45-9.34 1.24-2.97 3.21-5.27 6.25-7.29 2.44-1.62 7.04-3.49 10.23-4.16 4.39-0.91 5.93-1.7 6.31-3.21 0.28-1.1 0.29-3.84 0.02-6.08l-0.49-4.08zm7.16 44.41c-0.56 6.87-0.8 12.72-0.53 13 0.28 0.27 1.52-0.27 2.77-1.22 1.26-0.94 2.95-2.29 3.78-3 0.82-0.7 2.03-1.96 2.68-2.78 0.66-0.83 1.89-4.2 2.74-7.5 1.29-4.97 1.34-6.67 0.32-9.89-0.68-2.14-2.7-5.18-4.49-6.75-1.79-1.57-3.68-2.86-4.2-2.86-0.52 0-1.19 1.91-1.5 4.25-0.3 2.34-1.01 9.87-1.57 16.75zm298.02-102c7.79-0.03 12.18 0.47 17 1.97 3.57 1.1 8.75 3.31 11.5 4.91 2.75 1.59 7.02 4.67 9.5 6.85 2.47 2.17 6.64 7.05 9.26 10.86 2.62 3.8 5.92 10.28 7.34 14.41 1.42 4.12 2.88 10.32 3.24 13.76 0.55 5.19 0.4 6.26-0.84 6.27-0.87 0.01-1.84-1.36-2.3-3.26-0.44-1.8-2.24-6.13-4-9.63-1.76-3.5-5.49-8.9-8.29-12-2.8-3.1-7.53-7.34-10.5-9.41-2.98-2.07-8.56-4.92-12.41-6.33-4.53-1.65-10-2.74-15.5-3.09-6.05-0.37-10.52-0.04-15.5 1.14-3.85 0.92-10.15 3.32-14 5.34-4.28 2.25-9.53 6.22-13.5 10.22q-6.5 6.55-10.22 14.02c-2.05 4.11-4.07 8.94-4.5 10.73-0.43 1.8-1.46 3.52-2.28 3.83-1.3 0.49-1.38-0.44-0.64-6.76 0.47-4.03 1.53-9.58 2.36-12.33 0.83-2.75 2.75-7.48 4.27-10.5 1.53-3.03 4.77-7.98 7.22-11 2.45-3.03 7.56-7.64 11.37-10.26 3.81-2.62 10.07-5.87 13.92-7.23 5.69-2.01 8.96-2.48 17.5-2.51zm0.17 50c1.56 0 3.57 0.34 4.47 0.75 0.9 0.41 2.25 1.99 3 3.5 0.75 1.51 1.38 3.54 1.39 4.5 0.02 0.96-0.88 2.99-2 4.5-1.54 2.09-2.87 2.75-5.53 2.75-1.93 0-4.24-0.34-5.14-0.75-0.9-0.41-2.25-1.99-3-3.5-0.75-1.51-1.08-3.76-0.75-5 0.34-1.24 1.54-3.26 2.67-4.5 1.21-1.32 3.23-2.25 4.89-2.25zm40.83 21.01c0.27-0.04 0.84 0.2 1.25 0.52 0.41 0.33-1.05 7.43-3.25 15.78-2.21 8.35-4.01 16.43-4 17.94 0 1.51 0.45 2.97 1 3.25 0.55 0.27 1 0.95 1 1.5 0 0.58-3.17 1-7.5 1-4.13 0-7.73-0.45-8-1-0.28-0.55 0.4-1.23 1.5-1.5 1.32-0.33 2.64-2.28 5.79-11l-4.65-0.33c-4.39-0.3-4.84-0.08-8.39 4-2.06 2.38-3.75 5.12-3.75 6.08 0 0.96 0.67 1.75 1.5 1.75 0.82 0 1.5 0.45 1.5 1 0 0.56-2.83 1-6.5 1-3.67 0-6.5-0.44-6.5-1 0-0.55 0.76-1.34 1.69-1.75 0.93-0.41 8.25-8.37 16.25-17.68 8.59-9.98 15.79-17.45 17.56-18.21 1.65-0.7 3.22-1.31 3.5-1.35zm-17.02 20.26l-2.48 2.78c7.99-0.02 8-0.04 9.15-5.1 0.63-2.79 1.05-5.26 0.92-5.5-0.13-0.24-1.33 0.8-2.67 2.31-1.34 1.51-3.55 3.99-4.92 5.51zm-146.73-19.23c0.41-0.02 0.97 0.34 1.25 0.81 0.27 0.46-1.31 7.66-3.5 16-2.2 8.33-4 16.27-4 17.65 0 1.37 0.56 2.73 1.25 3.01 0.69 0.28 1.25 1.18 1.25 2 0 1.19-1.55 1.49-7.75 1.49-6.22 0-7.75-0.3-7.75-1.5 0-0.83 0.9-1.95 2-2.5 1.12-0.56 2.66-3.09 3.51-5.75 0.83-2.61 1.51-4.86 1.5-5 0-0.14-2.26-0.25-5.01-0.25-4.8 0-5.14 0.19-8.53 4.75-1.94 2.61-3.52 5.09-3.5 5.5 0.02 0.41 0.59 0.98 1.28 1.26 0.69 0.28 1.25 1.18 1.25 2 0 1.16-1.38 1.49-6.25 1.49-4.89 0-6.25-0.33-6.25-1.5 0-0.83 1.01-2.1 2.25-2.83 1.24-0.74 8.39-8.69 15.89-17.67 9.72-11.64 14.6-16.7 17-17.62 1.85-0.72 3.7-1.32 4.11-1.34zm-19.25 22.96c7.21 0.04 7.6-0.25 8.73-3.73 0.68-2.07 1.24-4.33 1.25-5.02 0.01-0.69-0.37-1.25-0.84-1.25-0.47 0-2.72 2.25-5 5zm208.5-21.89l1.32 11.2c0.73 6.15 1.63 11.77 2 12.48 0.44 0.82 3.78-3.29 17.68-23.87l6.25 0.04c3.44 0.02 6.25 0.38 6.24 0.79-0.01 0.41-1.11 1.87-2.44 3.25-1.33 1.37-3.52 5.87-4.86 10-1.34 4.12-2.99 10.2-3.66 13.5-1.16 5.65-1.11 6.09 0.83 7.5 1.13 0.82 1.78 1.84 1.44 2.25-0.35 0.41-4.15 0.75-8.46 0.75-4.31 0-7.86-0.34-7.88-0.75-0.03-0.41 0.89-1.43 2.04-2.25q2.09-1.5 5.01-11.5c1.6-5.5 2.59-10.35 2.2-10.77-0.39-0.42-3.98 4.31-7.98 10.5-4 6.2-7.92 12.17-8.72 13.27-0.8 1.1-2.03 1.72-2.73 1.38-0.79-0.38-1.77-4.78-2.56-11.5-0.71-5.98-1.67-12.23-2.13-13.88-0.57-2.05-1.02-2.53-1.42-1.5-0.32 0.82-1.72 5.55-3.13 10.5-1.4 4.95-2.55 10.01-2.54 11.25 0 1.41 0.75 2.43 2 2.75 1.1 0.27 1.78 0.95 1.5 1.5-0.27 0.55-3.42 1-7 1-3.57 0-6.72-0.45-7-1-0.27-0.55 0.85-1.45 2.5-2 2.62-0.87 3.26-1.87 4.95-7.75 1.07-3.71 2.87-10.13 4-14.25 1.13-4.13 2.06-7.84 2.06-8.25 0-0.41-1.13-1.2-2.51-1.75-1.37-0.55-2.5-1.56-2.5-2.25 0-0.92 2.05-1.17 15.5-0.64zm-302-0.13c4.61-0.03 6.81 0.49 9.46 2.24 2.2 1.45 4.21 4.04 5.5 7.1 1.85 4.37 1.93 5.37 0.8 10.5-0.68 3.12-2.48 7.44-4 9.58-1.52 2.15-4.49 5.3-6.6 7-3.37 2.71-4.74 3.14-11 3.4-5.24 0.23-7.76-0.11-9.41-1.25-1.23-0.85-3.48-3.43-5-5.73-2.21-3.37-2.73-5.25-2.65-9.75 0.05-3.53 0.85-7.04 2.16-9.57 1.14-2.2 3.57-5.44 5.41-7.19 1.83-1.75 4.68-3.89 6.33-4.74 1.71-0.89 5.6-1.57 9-1.59zm-9.84 12.17c-2.62 4.44-3.92 8-4.32 11.85-0.4 3.91-0.1 6.58 1.05 9.25 0.96 2.22 2.53 4.01 3.86 4.38 1.39 0.39 3.6-0.11 5.75-1.3 2.47-1.36 4.49-3.83 6.84-8.38 2.47-4.78 3.49-8.27 3.93-13.45 0.55-6.62 0.44-7.15-2.09-9.75-1.47-1.51-3.24-2.75-3.93-2.76-0.68 0-2.62 0.86-4.3 1.91-1.68 1.05-4.74 4.76-6.79 8.25zm51.59-12.01c2.62-0.08 5.65 0.31 6.75 0.86q2 1 2.5 0c0.28-0.55 1.4-1 2.5-1 1.68 0 1.9 0.45 1.35 2.75-0.36 1.51-1.15 4.51-1.75 6.66-0.6 2.15-1.66 4.06-2.35 4.25-0.77 0.21-1.53-1.23-2-3.81-0.45-2.52-1.67-4.88-3.09-6-1.29-1.02-3.46-1.85-4.83-1.85q-2.48-0.01-5.9 4c-1.89 2.2-4.11 6.36-4.94 9.25-0.83 2.89-1.5 7.16-1.5 9.5 0.01 2.34 0.46 5.37 1.01 6.75 0.55 1.37 2.02 3.2 3.25 4.06 1.46 1 3.4 1.36 5.5 1 1.85-0.32 4.76-2.07 6.75-4.06 1.93-1.93 3.95-3.28 4.5-3 0.55 0.27 1.02 0.84 1.05 1.25 0.02 0.41-1.44 2.22-3.25 4.03-1.81 1.8-3.86 3.04-4.55 2.75-0.68-0.29-1.02-0.08-0.75 0.47 0.28 0.55-0.17 1.22-1 1.5-0.82 0.27-4.08 0.51-7.25 0.53-4.5 0.03-6.38-0.46-8.67-2.25-1.61-1.25-3.53-3.74-4.25-5.53-0.73-1.79-1.34-5.16-1.35-7.5-0.01-2.34 0.69-6.28 1.56-8.75 0.87-2.48 2.58-5.97 3.81-7.76 1.23-1.8 4.46-4.32 7.19-5.61 2.76-1.31 7.07-2.41 9.71-2.49zm192.25-0.14c4.13 0 7.71 0.34 7.96 0.75 0.26 0.41-0.53 1.24-1.75 1.84-1.76 0.87-2.88 3.59-5.56 13.5-1.85 6.82-3.99 13.65-4.75 15.16-0.77 1.51-2.63 3.66-4.15 4.78-2.03 1.51-4.24 2.03-8.5 2-5.09-0.03-5.98-0.35-7.78-2.78-1.12-1.51-2.03-3.65-2.03-4.75 0-1.1 0.8-2.81 1.78-3.79 1-1.01 2.88-1.66 4.28-1.5 1.97 0.23 2.47 0.82 2.36 2.79-0.08 1.37-0.42 3.51-0.75 4.75-0.43 1.6-0.1 2.44 1.14 2.9 1.21 0.46 2.54-0.25 4.27-2.25 1.75-2.03 3.56-6.92 6-16.26 3.24-12.41 3.36-13.45 1.77-14.5-0.94-0.63-1.73-1.48-1.75-1.89-0.02-0.41 3.34-0.75 7.46-0.75zm-164 1c4.13 0 7.71 0.34 7.96 0.75 0.26 0.41-0.53 1.24-1.75 1.84-1.76 0.87-2.86 3.52-5.4 13-1.76 6.55-3.44 13.6-3.75 15.66q-0.56 3.75 0.69 4.26c0.69 0.28 1.25 1.18 1.25 2 0 1.19-1.52 1.49-7.5 1.49-6 0-7.5-0.3-7.5-1.5 0-0.83 0.45-1.48 1-1.46 0.55 0.03 1.54-0.53 2.19-1.25 0.65-0.71 2.9-7.97 5-16.13 3.54-13.78 3.69-14.92 2.1-16-0.94-0.64-1.73-1.5-1.75-1.91-0.02-0.41 3.34-0.75 7.46-0.75zm60.55 0c4.97 0 9.18 0.44 9.45 1 0.28 0.55-0.62 1.22-2 1.5-2.1 0.42-2.81 1.57-4.48 7.25-1.09 3.71-2.78 10.5-3.75 15.09-1.74 8.22-1.74 8.36 0.23 9.76 1.1 0.79 3.47 1.42 5.25 1.42 1.79-0.01 4.49-0.48 6-1.04 1.52-0.56 4.43-2.92 6.48-5.25 2.59-2.95 4.06-3.93 4.84-3.23 0.82 0.73 0.63 2.3-0.72 5.88-1.02 2.68-2.63 5.27-3.6 5.75-0.96 0.48-8.95 0.87-17.75 0.87-11.82 0-15.93-0.31-15.75-1.19 0.14-0.65 1.29-2.11 2.55-3.25 1.45-1.29 3.22-5.23 4.76-10.56 1.35-4.68 2.86-10.53 3.35-13 0.67-3.38 0.55-5.06-0.51-6.75-0.77-1.24-2.07-2.25-2.9-2.25-0.82 0-1.25-0.45-0.95-1 0.31-0.55 4.57-1 9.5-1z"/>
</svg>